<?xml version="1.0" encoding="UTF-8"?><svg id="a" xmlns="http://www.w3.org/2000/svg" viewBox="0 0 1000 700"><path d="M976.82,496.42c-10.88-18.69-25.98-33.4-45.29-44.14-8.32-4.62-17.05-8.24-26.17-10.88-3-1.11-5.9-2.46-8.68-4.07-9.04-5.21-16.17-12.41-21.38-21.61-5.22-9.2-7.82-19.46-7.82-30.8,0-10.67,2.31-20.4,6.93-29.17,1.6-2.35,3.13-4.77,4.58-7.26,10.88-18.69,16.32-39.54,16.32-62.53,0-6.49-.45-12.81-1.32-18.96l.05-.96c-.06.01-.12.03-.17.05-2.27-15.28-7.22-29.5-14.87-42.66-10.88-18.69-25.98-33.4-45.29-44.14-19.31-10.73-40.77-16.09-64.37-16.09s-45.06,5.37-64.37,16.09c-19.31,10.73-34.48,25.45-45.52,44.14-11.03,18.7-16.55,39.54-16.55,62.53s5.52,43.83,16.55,62.53c11.03,18.7,26.21,33.41,45.52,44.14,8.65,4.8,17.73,8.53,27.24,11.18,2.26.91,4.47,1.97,6.61,3.18,9.1,5.11,16.3,12.24,21.6,21.38,5.31,9.14,8.02,19.38,8.14,30.72.12,11.34-2.38,21.63-7.49,30.88-.32.59-.62,1.19-.89,1.8-.99,1.52-1.97,3.07-2.9,4.65-11.03,18.7-16.55,39.54-16.55,62.53s5.52,43.84,16.55,62.53c11.03,18.7,26.21,33.41,45.52,44.14,19.31,10.73,40.76,16.09,64.37,16.09s45.06-5.37,64.37-16.09c19.31-10.72,34.4-25.44,45.29-44.14,10.88-18.69,16.32-39.54,16.32-62.53s-5.44-43.83-16.32-62.53ZM717.39,255.16c5.21-9.19,12.33-16.39,21.38-21.61,9.04-5.21,19.08-7.82,30.11-7.82s21.53,2.61,30.57,7.82c9.04,5.22,16.16,12.41,21.38,21.61,5.21,9.2,7.82,19.47,7.82,30.8s-2.61,21.61-7.82,30.8c-.23.4-.46.79-.7,1.19-.55.84-1.08,1.69-1.61,2.55-4.95,7.43-11.3,13.39-19.07,17.87-9.04,5.22-19.08,7.82-30.11,7.82-5.19,0-10.14-.55-14.85-1.64-2.92-1.04-5.88-1.99-8.89-2.82-2.35-.96-4.62-2.08-6.83-3.35-9.04-5.21-16.17-12.41-21.38-21.61-5.21-9.2-7.82-19.46-7.82-30.8s2.6-21.61,7.82-30.8ZM918.66,589.75c-5.22,9.2-12.34,16.4-21.38,21.61-9.04,5.22-19.08,7.82-30.11,7.82s-21.54-2.6-30.57-7.82c-9.04-5.21-16.17-12.41-21.38-21.61-5.22-9.2-7.82-19.46-7.82-30.8s2.6-21.61,7.82-30.8c5.21-9.2,12.33-16.39,21.38-21.61,9.04-5.21,19.08-7.82,30.11-7.82s21.53,2.61,30.57,7.82c9.04,5.22,16.16,12.41,21.38,21.61,5.21,9.2,7.82,19.47,7.82,30.8s-2.61,21.61-7.82,30.8Z" style="fill:#000; stroke-width:0px;"/><path d="M585.44,290.02V18.3h-64.94l.11,331.03h116.04c-8.91-18.14-13.64-37.91-14.16-59.31h-37.05Z" style="fill:#000; stroke-width:0px;"/><path d="M993.14,290.02h-77.41c-.52,21.4-5.18,41.17-13.97,59.31h91.37v-59.31Z" style="fill:#000; stroke-width:0px;"/><path d="M6.86,160.85h74.02l66.21,180.23h-20.23l66.67-180.23h72.18l-96.09,234.48h-66.67L6.86,160.85Z" style="fill:#000; stroke-width:0px;"/><path d="M307.18,392.63c-19.16-10.73-34.25-25.44-45.29-44.14-11.03-18.69-16.55-39.54-16.55-62.53s5.52-43.83,16.55-62.53c11.03-18.69,26.13-33.4,45.29-44.14,19.15-10.73,40.69-16.09,64.6-16.09s44.6,5.37,63.91,16.09c19.31,10.73,34.48,25.52,45.52,44.37,11.04,18.85,16.55,39.93,16.55,63.22,0,8.28-.46,15.17-1.38,20.69h-194.48v-44.6h142.52l-13.33,22.99v-3.68c0-12.26-2.61-23.14-7.82-32.64-5.22-9.5-12.34-16.85-21.38-22.07-9.04-5.21-19.08-7.82-30.11-7.82s-21.61,2.76-30.8,8.28c-9.2,5.52-16.32,13.33-21.38,23.45-5.06,10.11-7.59,21.61-7.59,34.48s2.6,24.75,7.82,34.71c5.21,9.96,12.41,17.7,21.61,23.22,9.2,5.52,19.61,8.28,31.26,8.28s22.14-2.37,31.49-7.13c9.35-4.75,16.01-10.8,20-18.16h68.96c-8.28,24.83-23.38,44.68-45.29,59.54-21.92,14.87-47.28,22.3-76.09,22.3-23.91,0-45.44-5.37-64.6-16.09Z" style="fill:#000; stroke-width:0px;"/><path d="M6.86,441.71h64.83v234.48H6.86v-234.48ZM148.24,510.67c-7.82-7.97-18.01-11.95-30.57-11.95-13.79,0-24.91,4.14-33.33,12.41-8.43,8.28-12.64,19.16-12.64,32.64l-28.51-8.74c5.82-31.87,17.01-56.32,33.56-73.33,16.55-17.01,37.39-25.52,62.53-25.52s46.44,7.89,62.07,23.68c15.63,15.79,23.45,36.86,23.45,63.22v153.1h-64.83v-133.33c0-13.48-3.91-24.21-11.72-32.18ZM301.11,510.67c-7.67-7.97-17.93-11.95-30.8-11.95-13.79,0-24.83,4.14-33.1,12.41-8.28,8.28-12.41,19.16-12.41,32.64l-32.64-11.95c6.13-30.95,17.77-54.63,34.94-71.03,17.16-16.39,38.77-24.6,64.83-24.6s46.44,7.89,62.07,23.68c15.63,15.79,23.45,36.86,23.45,63.22v153.1h-64.83v-133.33c0-13.48-3.84-24.21-11.49-32.18Z" style="fill:#000; stroke-width:0px;"/><path d="M414.48,441.71h64.83v234.48h-64.83v-234.48Z" style="fill:#000; stroke-width:0px;"/><path d="M520.51,345.16h64.83v331.03h-64.83v-331.03ZM592.69,561.7l43.68,25.75h-84.6v-58.85h84.14l-42.76,25.75,70.8-112.64h77.7l-95.63,141.15-.46-49.2,99.31,142.53h-79.08l-73.1-114.48Z" style="fill:#000; stroke-width:0px;"/></svg>